<?xml version="1.0" encoding="utf-8"?>
<svg viewBox="0 0 469.308 207.468" xmlns="http://www.w3.org/2000/svg">
  <g id="layer1" transform="matrix(1.743142, 0, 0, 1.695186, 30.08095, 2.84646)" style="">
    <g id="g1041">
      <path d="m 120.28483,114.5975 c -15.19661,0 -27.516668,-12.30181 -27.516668,-27.475922 0,-15.174119 12.320058,-27.475921 27.516668,-27.475921 15.19661,0 27.51667,12.301802 27.51667,27.475921 0,15.174112 -12.32006,27.475922 -27.51667,27.475922 z" fill="#efefef" id="path9" style="stroke-width:0.264583"/>
      <path d="m 72.891077,74.455179 c 1.062302,0.357981 2.166143,0.684741 3.25702,0.960966 l 0.359569,-1.413933 c -1.063889,-0.266964 -2.108729,-0.588169 -3.144044,-0.93636 z m -3.171561,-1.205177 0.576527,-1.337734 c -1.006739,-0.429948 -1.998927,-0.900377 -2.96836,-1.393295 l -0.666486,1.290902 c 0.991659,0.515937 2.024592,1.000654 3.058319,1.440127 z m 9.739842,2.886868 c 0.920221,0.155575 1.83171,0.29263 2.757487,0.388938 l 0.155311,-1.439863 c -0.893763,-0.100541 -1.783027,-0.214577 -2.65774,-0.369093 z m -15.762023,-5.993341 0.756708,-1.243806 c -0.9271,-0.569648 -1.853406,-1.184805 -2.7432,-1.817423 l -0.842168,1.183481 c 0.921014,0.674158 1.874573,1.298575 2.82866,1.877748 z m -5.522648,-3.921919 0.927629,-1.123156 c -0.838729,-0.690827 -1.671902,-1.441185 -2.459831,-2.190485 l -1.008062,1.048808 c 0.823648,0.777346 1.684073,1.536964 2.540264,2.264833 z m -4.887119,-4.690269 1.075267,-0.979487 c -0.736864,-0.807773 -1.445948,-1.651529 -2.118254,-2.513012 l -1.150937,0.89191 c 0.708289,0.889264 1.434835,1.769798 2.193924,2.600589 z M 49.120381,56.179085 50.33376,55.369989 C 49.725748,54.45506 49.159539,53.50891 48.625081,52.558792 l -1.270794,0.712522 c 0.551921,0.986896 1.140619,1.956065 1.766094,2.907771 z m -3.294062,-5.930106 1.323445,-0.602721 c -0.232568,-0.508529 -0.451643,-1.01256 -0.665956,-1.530085 -0.205317,-0.499004 -0.392642,-1.007004 -0.579702,-1.515004 l -1.362869,0.497416 c 0.196057,0.526257 0.396875,1.039019 0.610923,1.556544 0.204788,0.544513 0.432594,1.0668 0.674159,1.59385 z m -2.373842,-6.338887 1.3843,-0.428625 c -0.328083,-1.060715 -0.624152,-2.125663 -0.920485,-3.190346 l -1.397265,0.378354 c 0.305065,1.083204 0.610129,2.166408 0.93345,3.240617 z M 41.676594,37.430446 43.082589,37.070348 42.9585,36.599654 c -0.239448,-0.922866 -0.474133,-1.859227 -0.718344,-2.7686 l -1.397264,0.378619 c 0.239447,0.922867 0.478895,1.845733 0.718343,2.7686 z m -1.735932,-6.41985 1.393032,-0.410369 c -0.323321,-1.074473 -0.660136,-2.153443 -1.033727,-3.214952 l -1.3716,0.479161 c 0.369622,1.029493 0.702468,2.076714 1.012295,3.14616 z M -14.53215,7.4719665 c 0.936175,-0.5404379 1.908254,-1.0530152 2.906712,-1.5105856 l -0.605869,-1.3107723 c -1.035103,0.4751917 -2.043827,1.0054167 -3.016647,1.5634758 z m 52.283385,17.3254195 1.332442,-0.5842 c -0.201613,-0.467254 -0.407723,-0.921015 -0.61886,-1.361017 -0.272521,-0.56859 -0.558536,-1.141677 -0.867834,-1.69254 l -1.279525,0.694267 c 0.286809,0.527844 0.564092,1.082675 0.827882,1.632744 0.215635,0.426508 0.413279,0.862012 0.605895,1.310746 z M -8.6004303,4.7210672 C -7.5715716,4.3504388 -6.529907,4.0300284 -5.4706477,3.7463157 L -5.8294756,2.3393145 c -1.0911416,0.2877608 -2.1830241,0.62103 -3.2485276,1.009306 z M 34.640794,19.038597 35.853908,18.229475 c -0.616479,-0.933291 -1.296987,-1.858486 -2.005012,-2.747698 l -1.128713,0.915061 c 0.663575,0.843042 1.321594,1.745139 1.920611,2.641759 z M -2.2775502,3.0682945 C -1.2062258,2.880308 -0.10852251,2.7473284 0.97494623,2.6550947 L 0.85747123,1.2109195 C -0.27124126,1.3024389 -1.4056423,1.4530397 -2.5223956,1.6403118 Z M 30.542398,13.92399 31.595175,12.921272 c -0.77761,-0.822061 -1.614752,-1.604116 -2.44819,-2.354263 l -0.963347,1.095137 c 0.810947,0.727022 1.61237,1.481217 2.35876,2.261844 z M 4.2499587,2.5243376 c 1.095375,0.00349 2.1902208,0.052467 3.265752,0.1557602 L 7.6575274,1.2354199 C 6.5364878,1.1314387 5.3963983,1.0817499 4.2555149,1.0775431 Z M 25.630673,9.6065454 26.4866,8.4278532 C 25.579079,7.7584573 24.630548,7.1202559 23.662702,6.5363734 l -0.756708,1.2439385 c 0.9271,0.5696215 1.853406,1.1846983 2.724679,1.8262335 z M 10.758709,3.1175864 c 1.074208,0.194257 2.14286,0.4475956 3.183731,0.7368645 L 14.34249,2.4547787 C 13.256375,2.1647953 12.146977,1.8971693 11.013767,1.6974618 Z m 9.286345,3.0937199 0.639498,-1.3003741 C 19.669875,4.4172991 18.613659,3.9548603 17.570406,3.5426924 l -0.522287,1.3568098 c 1.007533,0.3843337 2.009246,0.827696 2.996935,1.3118041 z" fill="#7ac0af" id="path27" style="stroke-width:0.264583"/>
      <path d="m -13.363962,-0.58139443 1.36951,0.48098604 -2.374371,6.76050099 6.915335,1.8644922 -0.3730625,1.4092238 -8.4179035,-2.2702308 z" fill="#7ac0af" id="path29" style="stroke-width:0.264583"/>
      <path d="M 120.107 71.162 C 123.272 71.162 126.365 72.1 128.997 73.858 C 131.628 75.616 133.679 78.115 134.89 81.039 C 136.101 83.962 136.418 87.179 135.801 90.283 C 135.183 93.387 133.66 96.238 131.422 98.476 C 129.184 100.713 126.333 102.237 123.229 102.855 C 120.126 103.472 116.908 103.155 113.985 101.944 C 111.061 100.733 108.562 98.682 106.804 96.051 C 105.046 93.419 104.108 90.326 104.108 87.161 C 104.108 85.06 104.522 82.98 105.326 81.039 C 106.13 79.097 107.308 77.334 108.794 75.848 C 110.28 74.362 112.044 73.184 113.985 72.38 C 115.926 71.576 118.006 71.162 120.107 71.162 Z M 114.887 87.161 C 114.887 94.893 120.107 101.161 120.107 101.161 C 120.107 101.161 125.327 94.893 125.327 87.161 C 125.327 79.429 120.107 73.162 120.107 73.162 C 120.107 73.162 114.887 79.43 114.887 87.161 Z" fill="#7ac0af"/>
    </g>
  </g>
</svg>